# Blender 4.1.1
# www.blender.org
mtllib title.mtl
o テキスト
v -23.059813 -0.246465 -0.995528
v -23.059813 6.967599 -0.995528
v -25.388865 6.967599 -0.995528
v -27.511862 3.848475 -0.995528
v -27.511862 6.967599 -0.995528
v -29.981634 6.967599 -0.995528
v -29.981634 -0.246465 -0.995528
v -27.634470 -0.246465 -0.995528
v -25.525015 2.846638 -0.995528
v -25.525015 -0.246465 -0.995528
v -20.285719 -0.246465 -0.995528
v -19.956953 0.858558 -0.995528
v -17.989374 0.858558 -0.995528
v -17.665174 -0.246465 -0.995528
v -14.980860 -0.246465 -0.995528
v -17.692286 6.967599 -0.995528
v -20.308065 6.967599 -0.995528
v -23.019491 -0.246465 -0.995528
v -18.593477 2.826046 -0.995528
v -19.365141 2.826046 -0.995528
v -18.978113 4.085073 -0.995528
v -6.922823 -0.246465 -0.995528
v -6.922823 6.967599 -0.995528
v -10.105745 6.967599 -0.995528
v -10.953966 3.677995 -0.995528
v -11.798491 6.967599 -0.995528
v -14.972502 6.967599 -0.995528
v -14.972502 -0.246465 -0.995528
v -12.763006 -0.246465 -0.995528
v -12.763006 3.060077 -0.995528
v -11.914190 -0.246465 -0.995528
v -9.980963 -0.246465 -0.995528
v -9.136885 3.053109 -0.995528
v -9.136885 -0.246465 -0.995528
v 2.931063 -0.246465 -0.995528
v 2.931063 6.967599 -0.995528
v -3.132315 6.967599 -0.995528
v -3.132315 5.018376 -0.995528
v 0.338001 5.018376 -0.995528
v 0.338001 4.474448 -0.995528
v -2.881174 4.474448 -0.995528
v -2.881174 2.589152 -0.995528
v 0.338001 2.589152 -0.995528
v 0.338001 1.789516 -0.995528
v -3.232771 1.789516 -0.995528
v -3.232771 -0.246465 -0.995528
v 10.150240 4.794631 -0.995528
v 10.150240 6.967599 -0.995528
v 3.342569 6.967599 -0.995528
v 3.342569 4.794631 -0.995528
v 5.452158 4.794631 -0.995528
v 5.452158 -0.246465 -0.995528
v 8.040649 -0.246465 -0.995528
v 8.040649 4.794631 -0.995528
v 13.236998 -0.246465 -0.995528
v 13.236998 6.967599 -0.995528
v 10.643938 6.967599 -0.995528
v 10.643938 -0.246465 -0.995528
v 21.100014 -0.246465 -0.995528
v 21.100014 6.967599 -0.995528
v 18.511520 6.967599 -0.995528
v 18.511520 4.625133 -0.995528
v 16.771244 4.625133 -0.995528
v 16.771244 6.967599 -0.995528
v 14.173620 6.967599 -0.995528
v 14.173620 -0.246465 -0.995528
v 16.771244 -0.246465 -0.995528
v 16.771244 2.461298 -0.995528
v 18.511520 2.461298 -0.995528
v 18.511520 -0.246465 -0.995528
v 29.610191 -0.246465 -0.995528
v 31.214409 6.967599 -0.995528
v 28.711363 6.967599 -0.995528
v 28.171772 4.116477 -0.995528
v 27.385017 6.967599 -0.995528
v 25.030403 6.967599 -0.995528
v 24.239382 4.113652 -0.995528
v 23.699257 6.967599 -0.995528
v 21.205990 6.967599 -0.995528
v 22.795446 -0.246465 -0.995528
v 25.229290 -0.246465 -0.995528
v 26.204823 3.257098 -0.995528
v 27.176558 -0.246465 -0.995528
v -23.059813 -0.246465 1.004472
v -23.059813 6.967599 1.004472
v -25.388865 6.967599 1.004472
v -27.511862 3.848475 1.004472
v -27.511862 6.967599 1.004472
v -29.981634 6.967599 1.004472
v -29.981634 -0.246465 1.004472
v -27.634470 -0.246465 1.004472
v -25.525015 2.846638 1.004472
v -25.525015 -0.246465 1.004472
v -20.285719 -0.246465 1.004472
v -19.956953 0.858558 1.004472
v -17.989374 0.858558 1.004472
v -17.665174 -0.246465 1.004472
v -14.980860 -0.246465 1.004472
v -17.692286 6.967599 1.004472
v -20.308065 6.967599 1.004472
v -23.019491 -0.246465 1.004472
v -18.593477 2.826046 1.004472
v -19.365141 2.826046 1.004472
v -18.978113 4.085073 1.004472
v -6.922823 -0.246465 1.004472
v -6.922823 6.967599 1.004472
v -10.105745 6.967599 1.004472
v -10.953966 3.677995 1.004472
v -11.798491 6.967599 1.004472
v -14.972502 6.967599 1.004472
v -14.972502 -0.246465 1.004472
v -12.763006 -0.246465 1.004472
v -12.763006 3.060077 1.004472
v -11.914190 -0.246465 1.004472
v -9.980963 -0.246465 1.004472
v -9.136885 3.053109 1.004472
v -9.136885 -0.246465 1.004472
v 2.931063 -0.246465 1.004472
v 2.931063 6.967599 1.004472
v -3.132315 6.967599 1.004472
v -3.132315 5.018376 1.004472
v 0.338001 5.018376 1.004472
v 0.338001 4.474448 1.004472
v -2.881174 4.474448 1.004472
v -2.881174 2.589152 1.004472
v 0.338001 2.589152 1.004472
v 0.338001 1.789516 1.004472
v -3.232771 1.789516 1.004472
v -3.232771 -0.246465 1.004472
v 10.150240 4.794631 1.004472
v 10.150240 6.967599 1.004472
v 3.342569 6.967599 1.004472
v 3.342569 4.794631 1.004472
v 5.452158 4.794631 1.004472
v 5.452158 -0.246465 1.004472
v 8.040649 -0.246465 1.004472
v 8.040649 4.794631 1.004472
v 13.236998 -0.246465 1.004472
v 13.236998 6.967599 1.004472
v 10.643938 6.967599 1.004472
v 10.643938 -0.246465 1.004472
v 21.100014 -0.246465 1.004472
v 21.100014 6.967599 1.004472
v 18.511520 6.967599 1.004472
v 18.511520 4.625133 1.004472
v 16.771244 4.625133 1.004472
v 16.771244 6.967599 1.004472
v 14.173620 6.967599 1.004472
v 14.173620 -0.246465 1.004472
v 16.771244 -0.246465 1.004472
v 16.771244 2.461298 1.004472
v 18.511520 2.461298 1.004472
v 18.511520 -0.246465 1.004472
v 29.610191 -0.246465 1.004472
v 31.214409 6.967599 1.004472
v 28.711363 6.967599 1.004472
v 28.171772 4.116477 1.004472
v 27.385017 6.967599 1.004472
v 25.030403 6.967599 1.004472
v 24.239382 4.113652 1.004472
v 23.699257 6.967599 1.004472
v 21.205990 6.967599 1.004472
v 22.795446 -0.246465 1.004472
v 25.229290 -0.246465 1.004472
v 26.204823 3.257098 1.004472
v 27.176558 -0.246465 1.004472
v 29.610191 -0.246465 1.004472
v 29.610191 -0.246465 -0.995528
v 31.214409 6.967599 1.004472
v 31.214409 6.967599 -0.995528
v 28.711363 6.967599 1.004472
v 28.711363 6.967599 -0.995528
v 28.171772 4.116477 1.004472
v 28.171772 4.116477 -0.995528
v 27.385017 6.967599 1.004472
v 27.385017 6.967599 -0.995528
v 25.030403 6.967599 1.004472
v 25.030403 6.967599 -0.995528
v 24.239382 4.113652 1.004472
v 24.239382 4.113652 -0.995528
v 23.699257 6.967599 1.004472
v 23.699257 6.967599 -0.995528
v 21.205990 6.967599 1.004472
v 21.205990 6.967599 -0.995528
v 22.795446 -0.246465 1.004472
v 22.795446 -0.246465 -0.995528
v 25.229290 -0.246465 1.004472
v 25.229290 -0.246465 -0.995528
v 26.204823 3.257098 1.004472
v 26.204823 3.257098 -0.995528
v 27.176558 -0.246465 1.004472
v 27.176558 -0.246465 -0.995528
v 21.100014 -0.246465 1.004472
v 21.100014 -0.246465 -0.995528
v 21.100014 6.967599 1.004472
v 21.100014 6.967599 -0.995528
v 18.511520 6.967599 1.004472
v 18.511520 6.967599 -0.995528
v 18.511520 4.625133 1.004472
v 18.511520 4.625133 -0.995528
v 16.771244 4.625133 1.004472
v 16.771244 4.625133 -0.995528
v 16.771244 6.967599 1.004472
v 16.771244 6.967599 -0.995528
v 14.173620 6.967599 1.004472
v 14.173620 6.967599 -0.995528
v 14.173620 -0.246465 1.004472
v 14.173620 -0.246465 -0.995528
v 16.771244 -0.246465 1.004472
v 16.771244 -0.246465 -0.995528
v 16.771244 2.461298 1.004472
v 16.771244 2.461298 -0.995528
v 18.511520 2.461298 1.004472
v 18.511520 2.461298 -0.995528
v 18.511520 -0.246465 1.004472
v 18.511520 -0.246465 -0.995528
v 13.236998 -0.246465 1.004472
v 13.236998 -0.246465 -0.995528
v 13.236998 6.967599 1.004472
v 13.236998 6.967599 -0.995528
v 10.643938 6.967599 1.004472
v 10.643938 6.967599 -0.995528
v 10.643938 -0.246465 1.004472
v 10.643938 -0.246465 -0.995528
v 10.150240 4.794631 1.004472
v 10.150240 4.794631 -0.995528
v 10.150240 6.967599 1.004472
v 10.150240 6.967599 -0.995528
v 3.342569 6.967599 1.004472
v 3.342569 6.967599 -0.995528
v 3.342569 4.794631 1.004472
v 3.342569 4.794631 -0.995528
v 5.452158 4.794631 1.004472
v 5.452158 4.794631 -0.995528
v 5.452158 -0.246465 1.004472
v 5.452158 -0.246465 -0.995528
v 8.040649 -0.246465 1.004472
v 8.040649 -0.246465 -0.995528
v 8.040649 4.794631 1.004472
v 8.040649 4.794631 -0.995528
v 2.931063 -0.246465 1.004472
v 2.931063 -0.246465 -0.995528
v 2.931063 6.967599 1.004472
v 2.931063 6.967599 -0.995528
v -3.132315 6.967599 1.004472
v -3.132315 6.967599 -0.995528
v -3.132315 5.018376 1.004472
v -3.132315 5.018376 -0.995528
v 0.338001 5.018376 1.004472
v 0.338001 5.018376 -0.995528
v 0.338001 4.474448 1.004472
v 0.338001 4.474448 -0.995528
v -2.881174 4.474448 1.004472
v -2.881174 4.474448 -0.995528
v -2.881174 2.589152 1.004472
v -2.881174 2.589152 -0.995528
v 0.338001 2.589152 1.004472
v 0.338001 2.589152 -0.995528
v 0.338001 1.789516 1.004472
v 0.338001 1.789516 -0.995528
v -3.232771 1.789516 1.004472
v -3.232771 1.789516 -0.995528
v -3.232771 -0.246465 1.004472
v -3.232771 -0.246465 -0.995528
v -6.922823 -0.246465 1.004472
v -6.922823 -0.246465 -0.995528
v -6.922823 6.967599 1.004472
v -6.922823 6.967599 -0.995528
v -10.105745 6.967599 1.004472
v -10.105745 6.967599 -0.995528
v -10.953966 3.677995 1.004472
v -10.953966 3.677995 -0.995528
v -11.798491 6.967599 1.004472
v -11.798491 6.967599 -0.995528
v -14.972502 6.967599 1.004472
v -14.972502 6.967599 -0.995528
v -14.972502 -0.246465 1.004472
v -14.972502 -0.246465 -0.995528
v -12.763006 -0.246465 1.004472
v -12.763006 -0.246465 -0.995528
v -12.763006 3.060077 1.004472
v -12.763006 3.060077 -0.995528
v -11.914190 -0.246465 1.004472
v -11.914190 -0.246465 -0.995528
v -9.980963 -0.246465 1.004472
v -9.980963 -0.246465 -0.995528
v -9.136885 3.053109 1.004472
v -9.136885 3.053109 -0.995528
v -9.136885 -0.246465 1.004472
v -9.136885 -0.246465 -0.995528
v -20.285719 -0.246465 1.004472
v -20.285719 -0.246465 -0.995528
v -19.956953 0.858558 1.004472
v -19.956953 0.858558 -0.995528
v -17.989374 0.858558 1.004472
v -17.989374 0.858558 -0.995528
v -17.665174 -0.246465 1.004472
v -17.665174 -0.246465 -0.995528
v -14.980860 -0.246465 1.004472
v -14.980860 -0.246465 -0.995528
v -17.692286 6.967599 1.004472
v -17.692286 6.967599 -0.995528
v -20.308065 6.967599 1.004472
v -20.308065 6.967599 -0.995528
v -23.019491 -0.246465 1.004472
v -23.019491 -0.246465 -0.995528
v -18.593477 2.826046 1.004472
v -18.593477 2.826046 -0.995528
v -19.365141 2.826046 1.004472
v -19.365141 2.826046 -0.995528
v -18.978113 4.085073 1.004472
v -18.978113 4.085073 -0.995528
v -23.059813 -0.246465 1.004472
v -23.059813 -0.246465 -0.995528
v -23.059813 6.967599 1.004472
v -23.059813 6.967599 -0.995528
v -25.388865 6.967599 1.004472
v -25.388865 6.967599 -0.995528
v -27.511862 3.848475 1.004472
v -27.511862 3.848475 -0.995528
v -27.511862 6.967599 1.004472
v -27.511862 6.967599 -0.995528
v -29.981634 6.967599 1.004472
v -29.981634 6.967599 -0.995528
v -29.981634 -0.246465 1.004472
v -29.981634 -0.246465 -0.995528
v -27.634470 -0.246465 1.004472
v -27.634470 -0.246465 -0.995528
v -25.525015 2.846638 1.004472
v -25.525015 2.846638 -0.995528
v -25.525015 -0.246465 1.004472
v -25.525015 -0.246465 -0.995528
vn -0.0000 -0.0000 -1.0000
vn -0.0000 -0.0000 1.0000
vn 0.6257 -0.7801 -0.0000
vn 0.7801 0.6257 -0.0000
vn -0.6380 0.7701 -0.0000
vn -0.0411 0.9992 -0.0000
vn 0.6058 0.7956 -0.0000
vn -0.6054 0.7960 -0.0000
vn 0.0417 0.9991 -0.0000
vn 0.6380 0.7701 -0.0000
vn -0.7795 0.6264 -0.0000
vn -0.6264 -0.7795 -0.0000
vn 0.6049 -0.7963 -0.0000
vn -0.0005 -1.0000 -0.0000
vn -0.6053 -0.7960 -0.0000
vn 0.7071 -0.7071 -0.0000
vn 0.7071 0.7071 -0.0000
vn -0.7071 0.7071 -0.0000
vn -0.7071 -0.7071 -0.0000
vn -0.6125 0.7905 -0.0000
vn 0.0005 1.0000 -0.0000
vn 0.6129 0.7901 -0.0000
vn 0.1253 -0.9921 -0.0000
vn -0.6129 -0.7901 -0.0000
vn 0.6133 -0.7899 -0.0000
vn -0.1249 -0.9922 -0.0000
vn 0.5978 -0.8016 -0.0000
vn -0.5994 -0.8005 -0.0000
vn 0.8221 -0.5693 -0.0000
vn 0.5693 0.8221 -0.0000
vn -0.5693 0.8221 -0.0000
vn -0.8221 -0.5693 -0.0000
vn -0.8038 0.5949 -0.0000
vn 0.8043 0.5942 -0.0000
vn -0.0009 -1.0000 -0.0000
vn -0.4676 0.8839 -0.0000
vn 0.2944 0.9557 -0.0000
vn 0.4672 -0.8841 -0.0000
vn -0.2948 -0.9556 -0.0000
vt 0.000000 0.000000
vt 0.222222 0.000000
vt 0.111111 0.000000
vt 0.888889 0.000000
vt 0.333333 0.000000
vt 0.555556 0.000000
vt 0.444444 0.000000
vt 0.666667 0.000000
vt 1.000000 0.000000
vt 0.777778 0.000000
vt 0.400000 0.000000
vt 0.600000 0.000000
vt 0.500000 0.000000
vt 0.700000 0.000000
vt 0.800000 0.000000
vt 0.900000 0.000000
vt 0.200000 0.000000
vt 0.100000 0.000000
vt 0.300000 0.000000
vt 0.166667 0.000000
vt 0.083333 0.000000
vt 0.916667 0.000000
vt 0.250000 0.000000
vt 0.416667 0.000000
vt 0.750000 0.000000
vt 0.583333 0.000000
vt 0.833333 0.000000
vt 0.363636 0.000000
vt 0.090909 0.000000
vt 0.181818 0.000000
vt 0.272727 0.000000
vt 0.454545 0.000000
vt 0.727273 0.000000
vt 0.545455 0.000000
vt 0.636364 0.000000
vt 0.818182 0.000000
vt 0.909091 0.000000
vt 0.285714 0.000000
vt 0.142857 0.000000
vt 0.428571 0.000000
vt 0.857143 0.000000
vt 0.571429 0.000000
vt 0.714286 0.000000
vt 0.000000 1.000000
vt 0.076923 1.000000
vt 0.076923 0.000000
vt 0.153846 1.000000
vt 0.153846 0.000000
vt 0.230769 1.000000
vt 0.230769 0.000000
vt 0.307692 1.000000
vt 0.307692 0.000000
vt 0.384615 1.000000
vt 0.384615 0.000000
vt 0.461538 1.000000
vt 0.461538 0.000000
vt 0.538462 1.000000
vt 0.538462 0.000000
vt 0.615385 1.000000
vt 0.615385 0.000000
vt 0.692308 1.000000
vt 0.692308 0.000000
vt 0.769231 1.000000
vt 0.769231 0.000000
vt 0.846154 1.000000
vt 0.846154 0.000000
vt 0.923077 1.000000
vt 0.923077 0.000000
vt 1.000000 1.000000
vt 0.083333 1.000000
vt 0.166667 1.000000
vt 0.250000 1.000000
vt 0.333333 1.000000
vt 0.416667 1.000000
vt 0.500000 1.000000
vt 0.583333 1.000000
vt 0.666667 1.000000
vt 0.750000 1.000000
vt 0.833333 1.000000
vt 0.916667 1.000000
vt 0.125000 1.000000
vt 0.125000 0.000000
vt 0.375000 1.000000
vt 0.375000 0.000000
vt 0.625000 1.000000
vt 0.625000 0.000000
vt 0.875000 1.000000
vt 0.875000 0.000000
vt 0.100000 1.000000
vt 0.200000 1.000000
vt 0.300000 1.000000
vt 0.400000 1.000000
vt 0.600000 1.000000
vt 0.700000 1.000000
vt 0.800000 1.000000
vt 0.900000 1.000000
s 0
f 1/1/1 3/2/1 2/3/1
f 1/1/1 9/4/1 3/2/1
f 9/4/1 4/5/1 3/2/1
f 4/5/1 6/6/1 5/7/1
f 4/5/1 7/8/1 6/6/1
f 9/4/1 7/8/1 4/5/1
f 1/1/1 10/9/1 9/4/1
f 8/10/1 7/8/1 9/4/1
f 15/11/1 17/12/1 16/13/1
f 15/11/1 21/9/1 17/12/1
f 21/9/1 18/14/1 17/12/1
f 15/11/1 19/15/1 21/9/1
f 20/16/1 18/14/1 21/9/1
f 15/11/1 20/16/1 19/15/1
f 15/11/1 13/17/1 20/16/1
f 13/17/1 12/18/1 20/16/1
f 12/18/1 18/14/1 20/16/1
f 15/11/1 14/19/1 13/17/1
f 11/1/1 18/14/1 12/18/1
f 22/1/1 24/20/1 23/21/1
f 22/1/1 33/22/1 24/20/1
f 33/22/1 25/23/1 24/20/1
f 25/23/1 27/24/1 26/5/1
f 25/23/1 30/8/1 27/24/1
f 30/8/1 28/13/1 27/24/1
f 33/22/1 30/8/1 25/23/1
f 33/22/1 31/25/1 30/8/1
f 29/26/1 28/13/1 30/8/1
f 22/1/1 34/9/1 33/22/1
f 32/27/1 31/25/1 33/22/1
f 35/1/1 39/28/1 36/29/1
f 39/28/1 37/30/1 36/29/1
f 39/28/1 38/31/1 37/30/1
f 35/1/1 40/32/1 39/28/1
f 35/1/1 43/33/1 40/32/1
f 43/33/1 41/34/1 40/32/1
f 43/33/1 42/35/1 41/34/1
f 35/1/1 44/36/1 43/33/1
f 35/1/1 45/37/1 44/36/1
f 35/1/1 46/9/1 45/37/1
f 47/1/1 49/38/1 48/39/1
f 47/1/1 50/40/1 49/38/1
f 54/9/1 50/40/1 47/1/1
f 53/41/1 51/42/1 54/9/1
f 51/42/1 50/40/1 54/9/1
f 53/41/1 52/43/1 51/42/1
f 55/1/1 57/8/1 56/5/1
f 55/1/1 58/9/1 57/8/1
f 59/1/1 61/30/1 60/29/1
f 59/1/1 62/31/1 61/30/1
f 63/28/1 65/34/1 64/32/1
f 63/28/1 66/35/1 65/34/1
f 59/1/1 63/28/1 62/31/1
f 59/1/1 69/37/1 63/28/1
f 69/37/1 68/36/1 63/28/1
f 68/36/1 66/35/1 63/28/1
f 59/1/1 70/9/1 69/37/1
f 67/33/1 66/35/1 68/36/1
f 71/1/1 73/20/1 72/21/1
f 71/1/1 74/23/1 73/20/1
f 74/23/1 76/24/1 75/5/1
f 74/23/1 77/13/1 76/24/1
f 77/13/1 79/8/1 78/26/1
f 77/13/1 80/25/1 79/8/1
f 71/1/1 82/22/1 74/23/1
f 82/22/1 77/13/1 74/23/1
f 82/22/1 80/25/1 77/13/1
f 71/1/1 83/9/1 82/22/1
f 81/27/1 80/25/1 82/22/1
f 84/1/2 85/3/2 86/2/2
f 84/1/2 86/2/2 92/4/2
f 92/4/2 86/2/2 87/5/2
f 87/5/2 88/7/2 89/6/2
f 87/5/2 89/6/2 90/8/2
f 92/4/2 87/5/2 90/8/2
f 84/1/2 92/4/2 93/9/2
f 91/10/2 92/4/2 90/8/2
f 98/11/2 99/13/2 100/12/2
f 98/11/2 100/12/2 104/9/2
f 104/9/2 100/12/2 101/14/2
f 98/11/2 104/9/2 102/15/2
f 103/16/2 104/9/2 101/14/2
f 98/11/2 102/15/2 103/16/2
f 98/11/2 103/16/2 96/17/2
f 96/17/2 103/16/2 95/18/2
f 95/18/2 103/16/2 101/14/2
f 98/11/2 96/17/2 97/19/2
f 94/1/2 95/18/2 101/14/2
f 105/1/2 106/21/2 107/20/2
f 105/1/2 107/20/2 116/22/2
f 116/22/2 107/20/2 108/23/2
f 108/23/2 109/5/2 110/24/2
f 108/23/2 110/24/2 113/8/2
f 113/8/2 110/24/2 111/13/2
f 116/22/2 108/23/2 113/8/2
f 116/22/2 113/8/2 114/25/2
f 112/26/2 113/8/2 111/13/2
f 105/1/2 116/22/2 117/9/2
f 115/27/2 116/22/2 114/25/2
f 118/1/2 119/29/2 122/28/2
f 122/28/2 119/29/2 120/30/2
f 122/28/2 120/30/2 121/31/2
f 118/1/2 122/28/2 123/32/2
f 118/1/2 123/32/2 126/33/2
f 126/33/2 123/32/2 124/34/2
f 126/33/2 124/34/2 125/35/2
f 118/1/2 126/33/2 127/36/2
f 118/1/2 127/36/2 128/37/2
f 118/1/2 128/37/2 129/9/2
f 130/1/2 131/39/2 132/38/2
f 130/1/2 132/38/2 133/40/2
f 137/9/1 130/1/1 133/40/1
f 136/41/2 137/9/2 134/42/2
f 134/42/1 137/9/1 133/40/1
f 136/41/2 134/42/2 135/43/2
f 138/1/2 139/5/2 140/8/2
f 138/1/2 140/8/2 141/9/2
f 142/1/2 143/29/2 144/30/2
f 142/1/2 144/30/2 145/31/2
f 146/28/2 147/32/2 148/34/2
f 146/28/2 148/34/2 149/35/2
f 142/1/2 145/31/2 146/28/2
f 142/1/2 146/28/2 152/37/2
f 152/37/2 146/28/2 151/36/2
f 151/36/2 146/28/2 149/35/2
f 142/1/2 152/37/2 153/9/2
f 150/33/2 151/36/2 149/35/2
f 154/1/2 155/21/2 156/20/2
f 154/1/2 156/20/2 157/23/2
f 157/23/2 158/5/2 159/24/2
f 157/23/2 159/24/2 160/13/2
f 160/13/2 161/26/2 162/8/2
f 160/13/2 162/8/2 163/25/2
f 154/1/2 157/23/2 165/22/2
f 165/22/2 157/23/2 160/13/2
f 165/22/2 160/13/2 163/25/2
f 154/1/2 165/22/2 166/9/2
f 164/27/2 165/22/2 163/25/2
s 1
f 168/44/3 170/45/4 169/46/4 167/1/3
f 170/45/4 172/47/5 171/48/5 169/46/4
f 172/47/5 174/49/6 173/50/6 171/48/5
f 174/49/6 176/51/7 175/52/7 173/50/6
f 176/51/7 178/53/8 177/54/8 175/52/7
f 178/53/8 180/55/9 179/56/9 177/54/8
f 180/55/9 182/57/10 181/58/10 179/56/9
f 182/57/10 184/59/11 183/60/11 181/58/10
f 184/59/11 186/61/12 185/62/12 183/60/11
f 186/61/12 188/63/13 187/64/13 185/62/12
f 188/63/13 190/65/14 189/66/14 187/64/13
f 190/65/14 192/67/15 191/68/15 189/66/14
f 192/67/15 168/69/3 167/9/3 191/68/15
f 194/44/16 196/70/17 195/21/17 193/1/16
f 196/70/17 198/71/18 197/20/18 195/21/17
f 198/71/18 200/72/18 199/23/18 197/20/18
f 200/72/18 202/73/17 201/5/17 199/23/18
f 202/73/17 204/74/17 203/24/17 201/5/17
f 204/74/17 206/75/18 205/13/18 203/24/17
f 206/75/18 208/76/19 207/26/19 205/13/18
f 208/76/19 210/77/16 209/8/16 207/26/19
f 210/77/16 212/78/16 211/25/16 209/8/16
f 212/78/16 214/79/19 213/27/19 211/25/16
f 214/79/19 216/80/19 215/22/19 213/27/19
f 216/80/19 194/69/16 193/9/16 215/22/19
f 218/44/16 220/72/17 219/23/17 217/1/16
f 220/72/17 222/75/18 221/13/18 219/23/17
f 222/75/18 224/78/19 223/25/19 221/13/18
f 224/78/19 218/69/16 217/9/16 223/25/19
f 226/44/16 228/81/17 227/82/17 225/1/16
f 228/81/17 230/72/18 229/23/18 227/82/17
f 230/72/18 232/83/19 231/84/19 229/23/18
f 232/83/19 234/75/19 233/13/19 231/84/19
f 234/75/19 236/85/19 235/86/19 233/13/19
f 236/85/19 238/78/16 237/25/16 235/86/19
f 238/78/16 240/87/16 239/88/16 237/25/16
f 240/87/16 226/69/16 225/9/16 239/88/16
f 242/44/16 244/70/17 243/21/17 241/1/16
f 244/70/17 246/71/18 245/20/18 243/21/17
f 246/71/18 248/72/19 247/23/19 245/20/18
f 248/72/19 250/73/19 249/5/19 247/23/19
f 250/73/19 252/74/18 251/24/18 249/5/19
f 252/74/18 254/75/18 253/13/18 251/24/18
f 254/75/18 256/76/19 255/26/19 253/13/18
f 256/76/19 258/77/19 257/8/19 255/26/19
f 258/77/19 260/78/18 259/25/18 257/8/19
f 260/78/18 262/79/18 261/27/18 259/25/18
f 262/79/18 264/80/19 263/22/19 261/27/18
f 264/80/19 242/69/16 241/9/16 263/22/19
f 266/44/16 268/45/17 267/46/17 265/1/16
f 268/45/17 270/47/20 269/48/20 267/46/17
f 270/47/20 272/49/21 271/50/21 269/48/20
f 272/49/21 274/51/22 273/52/22 271/50/21
f 274/51/22 276/53/18 275/54/18 273/52/22
f 276/53/18 278/55/19 277/56/19 275/54/18
f 278/55/19 280/57/16 279/58/16 277/56/19
f 280/57/16 282/59/23 281/60/23 279/58/16
f 282/59/23 284/61/24 283/62/24 281/60/23
f 284/61/24 286/63/25 285/64/25 283/62/24
f 286/63/25 288/65/26 287/66/26 285/64/25
f 288/65/26 290/67/19 289/68/19 287/66/26
f 290/67/19 266/69/16 265/9/16 289/68/19
f 292/44/27 294/81/27 293/82/27 291/1/27
f 294/81/27 296/72/28 295/23/28 293/82/27
f 296/72/28 298/83/28 297/84/28 295/23/28
f 298/83/28 300/75/29 299/13/29 297/84/28
f 300/75/29 302/85/30 301/86/30 299/13/29
f 302/85/30 304/78/31 303/25/31 301/86/30
f 304/78/31 306/87/32 305/88/32 303/25/31
f 306/87/32 292/69/27 291/9/27 305/88/32
f 308/44/33 310/73/34 309/5/34 307/1/33
f 310/73/34 312/77/35 311/8/35 309/5/34
f 312/77/35 308/69/33 307/9/33 311/8/35
f 314/44/16 316/89/17 315/18/17 313/1/16
f 316/89/17 318/90/36 317/17/36 315/18/17
f 318/90/36 320/91/37 319/19/37 317/17/36
f 320/91/37 322/92/17 321/11/17 319/19/37
f 322/92/17 324/75/18 323/13/18 321/11/17
f 324/75/18 326/93/19 325/12/19 323/13/18
f 326/93/19 328/94/38 327/14/38 325/12/19
f 328/94/38 330/95/39 329/15/39 327/14/38
f 330/95/39 332/96/19 331/16/19 329/15/39
f 332/96/19 314/69/16 313/9/16 331/16/19
